<svg width="20" height="20" viewBox="0 0 20 20" fill="none" xmlns="http://www.w3.org/2000/svg">
<path d="M7.1875 4.375C7.1875 3.64583 7.47396 2.99479 8.04688 2.42188C8.61979 1.84896 9.27083 1.5625 10 1.5625C10.7292 1.5625 11.3802 1.84896 11.9531 2.42188C12.526 2.99479 12.8125 3.64583 12.8125 4.375V8.4375H14.375V6.5625H16.2891L16.8359 18.4375H3.16406L3.71094 6.5625H4.0625V5H2.22656L1.52344 20H18.4766L17.7734 5H14.375V4.375C14.375 3.78906 14.2578 3.23568 14.0234 2.71484C13.7891 2.18099 13.4701 1.71224 13.0664 1.30859C12.6628 0.904947 12.194 0.585938 11.6602 0.351562C11.1393 0.117188 10.5859 0 10 0C9.41406 0 8.86068 0.117188 8.33984 0.351562C7.80599 0.585938 7.33724 0.904947 6.93359 1.30859C6.52995 1.71224 6.21094 2.18099 5.97656 2.71484C5.74219 3.23568 5.625 3.78906 5.625 4.375V8.4375H7.1875V6.5625H10.9375V5H7.1875V4.375Z" fill="#333333"/>
</svg>
